<svg width="50" height="50" viewBox="0 0 50 50" fill="none" xmlns="http://www.w3.org/2000/svg">
<path fill-rule="evenodd" clip-rule="evenodd" d="M0 0H49.6107V49.6107H0V0ZM24.8054 12.4027C31.6268 12.4027 37.2081 17.9839 37.2081 24.8054C37.2081 31.0067 32.7121 36.2779 26.5107 37.2081V28.3711H29.4564L30.0765 24.8054H26.6658V22.4799C26.6658 21.5497 27.1309 20.6195 28.6812 20.6195H30.2315V17.5188C30.2315 17.5188 28.8362 17.2087 27.4409 17.2087C24.6503 17.2087 22.7899 18.9141 22.7899 22.0148V24.8054H19.6893V28.3711H22.7899V37.053C16.8987 36.1228 12.4027 31.0067 12.4027 24.8054C12.4027 17.9839 17.9839 12.4027 24.8054 12.4027Z" fill="white"/>
</svg>
