<svg width="51" height="50" viewBox="0 0 51 50" fill="none" xmlns="http://www.w3.org/2000/svg">
<path fill-rule="evenodd" clip-rule="evenodd" d="M0.462891 0H50.0736V49.6107H0.462891V0ZM13.1756 20.6195V37.2081H18.4468V20.6195H13.1756ZM12.8656 15.3483C12.8656 17.0537 14.1058 18.294 15.8112 18.294C17.5166 18.294 18.7569 17.0537 18.7569 15.3483C18.7569 13.643 17.5166 12.4027 15.8112 12.4027C14.2609 12.4027 12.8656 13.643 12.8656 15.3483ZM32.3998 37.2081H37.3609V26.9758C37.3609 21.8597 34.2602 20.1544 31.3146 20.1544C28.679 20.1544 26.8186 21.8597 26.3535 22.945V20.6195H21.3924V37.2081H26.6636V28.3711C26.6636 26.0456 28.2139 24.8054 29.7642 24.8054C31.3146 24.8054 32.3998 25.5805 32.3998 28.2161V37.2081Z" fill="white"/>
</svg>
