<svg width="50" height="50" viewBox="0 0 50 50" fill="none" xmlns="http://www.w3.org/2000/svg">
<path fill-rule="evenodd" clip-rule="evenodd" d="M19.9239 33.6423C21.4742 34.5725 23.3346 35.0376 25.195 35.0376C30.9313 35.0376 35.4272 30.3866 35.4272 24.9604C35.4272 22.1698 34.4971 19.6893 32.4816 17.6738C30.4662 15.8134 27.9856 14.7282 25.195 14.7282C19.6138 14.7282 14.9628 19.3792 14.9628 24.9604C14.9628 26.8208 15.4279 28.6812 16.5131 30.3866L16.8232 30.8517L15.738 34.5725L19.6138 33.4872L19.9239 33.6423ZM28.6058 26.3557C28.9158 26.3557 30.4662 27.1309 30.7762 27.2859C30.8245 27.31 30.8728 27.3304 30.9205 27.3506C31.1791 27.4597 31.4205 27.5616 31.5514 28.2161C31.7064 28.2161 31.7064 28.8362 31.3964 29.6114C31.2413 30.2315 30.0011 31.0067 29.3809 31.0067C29.2759 31.0067 29.1753 31.0156 29.0678 31.0251C28.5409 31.0717 27.8491 31.1329 25.6601 30.2315C22.9432 29.1448 21.0595 26.5106 20.5306 25.7709C20.4558 25.6664 20.4082 25.5997 20.389 25.5805C20.3626 25.5277 20.3092 25.4435 20.2388 25.3324C19.8958 24.7908 19.1487 23.6112 19.1487 22.3248C19.1487 20.7745 19.9239 19.9993 20.2339 19.6893C20.544 19.3792 20.8541 19.3792 21.0091 19.3792H21.6293C21.7843 19.3792 22.0944 19.3792 22.2494 19.8443C22.5595 20.4644 23.1796 22.0148 23.1796 22.1698C23.1796 22.2215 23.1968 22.2732 23.214 22.3248C23.2485 22.4282 23.283 22.5315 23.1796 22.6349C23.1021 22.7124 23.0633 22.7899 23.0246 22.8674C22.9858 22.945 22.947 23.0225 22.8695 23.1L22.4044 23.5651C22.2494 23.7201 22.0944 23.8752 22.2494 24.1852C22.4044 24.4953 23.0246 25.5805 23.9548 26.3557C25.0014 27.2715 25.8272 27.6353 26.2459 27.8197C26.3233 27.8539 26.3869 27.8818 26.4353 27.906C26.7453 27.906 26.9004 27.906 27.0554 27.751C27.133 27.596 27.3267 27.3634 27.5205 27.1309C27.7143 26.8983 27.9081 26.6658 27.9856 26.5107C28.1406 26.2007 28.2957 26.2007 28.6058 26.3557Z" fill="white"/>
<path fill-rule="evenodd" clip-rule="evenodd" d="M0.389648 0H50.0004V49.6107H0.389648V0ZM25.195 12.4027C28.4507 12.4027 31.5514 13.643 33.8769 15.9685C36.2024 18.294 37.5977 21.3946 37.5977 24.6503C37.5977 31.4718 32.0165 37.053 25.195 37.053C23.1796 37.053 21.1642 36.4329 19.3038 35.5027L12.7923 37.2081L14.4977 31.0067C13.4125 29.1463 12.7923 26.9758 12.7923 24.8054C12.7923 17.9839 18.3735 12.4027 25.195 12.4027Z" fill="white"/>
</svg>
