<svg width="51" height="50" viewBox="0 0 51 50" fill="none" xmlns="http://www.w3.org/2000/svg">
<path d="M25.7311 29.1463C23.4056 29.1463 21.3902 27.2859 21.3902 24.8054C21.3902 22.4799 23.2506 20.4644 25.7311 20.4644C28.0567 20.4644 30.0721 22.3248 30.0721 24.8054C30.0721 27.1309 28.0567 29.1463 25.7311 29.1463Z" fill="white"/>
<path fill-rule="evenodd" clip-rule="evenodd" d="M31.0023 14.2631H20.46C19.2197 14.4181 18.5996 14.5731 18.1345 14.7282C17.5144 14.8832 17.0493 15.1933 16.5842 15.6584C16.2161 16.0264 16.0423 16.3944 15.8321 16.8393C15.7767 16.9565 15.7186 17.0794 15.654 17.2087C15.63 17.2807 15.6023 17.3563 15.5726 17.4374C15.4104 17.8805 15.1889 18.4858 15.1889 19.5342V30.0765C15.3439 31.3168 15.4989 31.9369 15.654 32.402C15.809 33.0221 16.1191 33.4872 16.5842 33.9523C16.9522 34.3204 17.3202 34.4943 17.7651 34.7044C17.8824 34.7599 18.0051 34.8178 18.1345 34.8825C18.2065 34.9065 18.2821 34.9342 18.3632 34.9639C18.8063 35.1261 19.4116 35.3476 20.46 35.3476H31.0023C32.2426 35.1926 32.8627 35.0376 33.3278 34.8825C33.9479 34.7275 34.413 34.4174 34.8781 33.9523C35.2462 33.5843 35.42 33.2163 35.6302 32.7715C35.6856 32.6541 35.7436 32.5314 35.8083 32.402C35.8323 32.3301 35.86 32.2544 35.8897 32.1733C36.0519 31.7302 36.2734 31.1249 36.2734 30.0765V19.5342C36.1184 18.294 35.9634 17.6738 35.8083 17.2087C35.6533 16.5886 35.3432 16.1235 34.8781 15.6584C34.5101 15.2904 34.1421 15.1165 33.6972 14.9063C33.5801 14.8509 33.457 14.7928 33.3278 14.7282C33.2558 14.7042 33.1802 14.6765 33.0991 14.6468C32.656 14.4846 32.0507 14.2631 31.0023 14.2631ZM25.7311 18.1389C22.0103 18.1389 19.0647 21.0846 19.0647 24.8054C19.0647 28.5262 22.0103 31.4718 25.7311 31.4718C29.452 31.4718 32.3976 28.5262 32.3976 24.8054C32.3976 21.0846 29.452 18.1389 25.7311 18.1389ZM34.103 17.9839C34.103 18.8401 33.4089 19.5342 32.5526 19.5342C31.6964 19.5342 31.0023 18.8401 31.0023 17.9839C31.0023 17.1277 31.6964 16.4336 32.5526 16.4336C33.4089 16.4336 34.103 17.1277 34.103 17.9839Z" fill="white"/>
<path fill-rule="evenodd" clip-rule="evenodd" d="M0.925781 0H50.5365V49.6107H0.925781V0ZM20.46 11.9376H31.0023C32.3976 12.0926 33.3278 12.2476 34.103 12.5577C35.0332 13.0228 35.6533 13.3329 36.4285 14.108C37.2036 14.8832 37.6687 15.6584 37.9788 16.4336C38.2889 17.2087 38.5989 18.1389 38.5989 19.5342V30.0765C38.4439 31.4718 38.2889 32.402 37.9788 33.1772C37.5137 34.1074 37.2036 34.7275 36.4285 35.5027C35.6533 36.2778 34.8781 36.7429 34.103 37.053C33.3278 37.3631 32.3976 37.6731 31.0023 37.6731H20.46C19.0647 37.5181 18.1345 37.3631 17.3593 37.053C16.4291 36.5879 15.809 36.2778 15.0338 35.5027C14.2587 34.7275 13.7936 33.9523 13.4835 33.1772C13.1734 32.402 12.8634 31.4718 12.8634 30.0765V19.5342C13.0184 18.1389 13.1734 17.2087 13.4835 16.4336C13.9486 15.5034 14.2587 14.8832 15.0338 14.108C15.809 13.3329 16.5842 12.8678 17.3593 12.5577C18.1345 12.2476 19.0647 11.9376 20.46 11.9376Z" fill="white"/>
</svg>
