<svg width="55" height="55" viewBox="0 0 55 55" fill="none" xmlns="http://www.w3.org/2000/svg">
<path fill-rule="evenodd" clip-rule="evenodd" d="M5.5 27.5C5.5 15.3497 15.3497 5.5 27.5 5.5C39.6503 5.5 49.5 15.3497 49.5 27.5C49.5 39.6503 39.6503 49.5 27.5 49.5C25.1784 49.5 22.9411 49.1403 20.8401 48.474C20.9939 47.7103 21.1781 46.9868 21.3893 46.2952C21.7267 46.2946 22.0688 46.2624 22.412 46.1972L26.7451 45.3717C39.4501 42.9517 46.2017 28.9413 40.1781 17.4961L37.8804 13.1311C36.6399 10.7737 33.888 9.64439 31.3489 10.4506L27.3432 11.7226C17.9134 14.717 12.2889 24.3721 14.3357 34.0521L16.0019 41.932C16.1148 42.4658 16.3016 42.9652 16.5496 43.4217C16.2458 44.2684 15.9734 45.1569 15.7393 46.096C9.58526 42.1957 5.5 35.3249 5.5 27.5ZM27.5 0C12.3122 0 0 12.3122 0 27.5C0 42.6877 12.3122 55 27.5 55C42.6877 55 55 42.6877 55 27.5C55 12.3122 42.6877 0 27.5 0ZM24.6474 39.5884C24.5033 39.8093 24.3617 40.0309 24.2225 40.2534L25.7161 39.9691C34.7911 38.2404 39.6135 28.2329 35.3108 20.0578L33.0135 15.6927L29.0078 16.9646C22.2722 19.1035 18.2547 26.0001 19.7167 32.9142L20.383 36.0654C21.0733 35.0325 21.7998 34.0159 22.5057 33.0278C22.7958 32.6216 23.0835 32.219 23.3632 31.823C24.461 30.2681 25.5115 28.7114 26.471 26.9827C27.208 25.655 28.8819 25.176 30.2099 25.913C31.5378 26.65 32.0169 28.3239 31.2799 29.6519C30.1766 31.6396 28.9924 33.3858 27.8559 34.9954C27.5363 35.4483 27.2247 35.8845 26.9203 36.3105C26.1192 37.4319 25.3679 38.4832 24.6474 39.5884Z" fill="white"/>
</svg>
